<svg xmlns="http://www.w3.org/2000/svg" baseProfile="tiny" viewBox="0 0 42.5 42.5"><path fill="#fff" d="M21.3 32.1c-2.1 0-4.1-.6-5.9-1.8s-3.1-2.6-4-4.5L2.6 10.6C.8 13.9 0 17.5 0 21.3c0 5.3 1.8 10 5.2 13.9s7.8 6.3 12.9 7.1l6.2-10.7c-.6.2-1.7.5-3 .5m-6.7-19.6c2-1.5 4.2-2.2 6.7-2.2h18.2C37.6 7 35 4.7 31.8 2.9 28.6 1 25.1 0 21.3 0 18 0 14.8.7 12 2.1S6.4 5.6 4.5 8.2l6.2 10.1c.5-2.3 1.9-4.3 3.9-5.8m26.3.8H28.6c2.1 2.1 3.6 4.9 3.6 8 0 2.3-.7 4.3-1.9 6.2l-8.8 15c5.8-.1 10.8-2.1 14.9-6.3s6.2-9.2 6.2-15c-.1-2.7-.5-5.5-1.7-7.9m-19.6-.1c4.4 0 8.1 3.7 8.1 8.1s-3.7 8.1-8.1 8.1-8.1-3.7-8.1-8.1 3.7-8.1 8.1-8.1"/></svg>