<svg xmlns="http://www.w3.org/2000/svg" baseProfile="tiny" viewBox="0 0 42.5 42.5"><path fill="#fff" d="M42.4 13.3v-2.8c0-.9-.2-1.9-.3-2.8s-.5-1.9-.9-2.7c-.8-1.7-2.2-3-3.9-3.9a6.18 6.18 0 0 0-2.7-.9c-.8.2-1.7 0-2.7 0H10.5c-.9 0-1.9.2-2.8.3S5.8.9 5 1.2c-1.7.9-3 2.2-3.9 3.9-.3.8-.6 1.7-.8 2.7S0 9.6 0 10.6v21.5c0 .9.2 1.9.3 2.8s.5 1.9.9 2.7c.8 1.7 2.2 3 3.9 3.9.9.5 1.8.8 2.7.9.8-.2 1.7 0 2.7 0h21.3c.9 0 1.9-.2 2.8-.3.9-.2 1.9-.5 2.7-.9 1.7-.8 3-2.2 3.9-3.9a6.18 6.18 0 0 0 .9-2.7l.3-2.8V13.3zm-29.4.6c.6-.8 1.4-1.1 2.4-1.3 0 .9-.2 1.7-.8 2.5-.6.6-1.4 1.1-2.4 1.1 0-.9.2-1.7.8-2.3zM17.4 26c-.6.9-1.3 1.9-2.4 1.9-.9 0-1.4-.6-2.5-.6s-1.5.5-2.5.5-1.7-.9-2.3-1.8c-1.3-1.9-2.4-5.3-.9-7.7.6-1.1 1.9-1.9 3.1-1.9.9 0 1.9.6 2.5.6s1.7-.8 3-.8c1.1 0 2.2.6 2.8 1.6-.9.6-1.6 1.7-1.7 3 0 1.4.8 2.5 2 3.1a8.42 8.42 0 0 1-1.1 2.1zm8-7.3h-2v6c0 .9.5 1.4 1.3 1.4h.8v1.7c-.5 0-.8.2-1.3.2-2.2 0-3-.8-3-2.8v-6.3h-1.6v-1.7h1.6v-2.7h2.2V17h2v1.7zm7.1 9.1h-2.2l-3.8-10.7h2.2l2.7 8.6 2.7-8.6h2.2c-.1.1-3.8 10.7-3.8 10.7z"/></svg>