<svg xmlns="http://www.w3.org/2000/svg" baseProfile="tiny" viewBox="0 0 42.5 42.5"><path fill="#fff" d="M10.8 10.3zm29.4 3.8c-.9-2.1-2.7-4.4-4.1-5.1 1.1 2.3 1.8 4.5 2.1 6.2-2.3-5.8-6.2-8.1-9.4-13.1-.2-.3-.3-.5-.5-.8-.1-.2-.2-.3-.3-.4-.1-.3-.2-.5-.3-.8V0c-4.5 2.7-6.4 7.3-6.9 10.3-1.4.1-2.8.4-4 1-.2.1-.4.4-.3.6.1.3.4.4.7.3h0c1.1-.5 2.3-.8 3.5-.9h.6c1 0 2 .1 2.9.4.1 0 .1 0 .2.1.2 0 .3.1.5.2.1 0 .2.1.3.1s.2.1.3.1c.1.1.3.1.4.2.1 0 .1.1.2.1.1.1.3.1.4.2.1 0 .2.1.3.2 1.5.9 2.7 2.2 3.6 3.7-1.1-.8-3-1.5-4.9-1.2 7.3 3.7 5.4 16.3-4.8 15.8-.9 0-1.8-.2-2.7-.5-.2-.1-.4-.2-.6-.2-.1-.1-.2-.1-.3-.2-2.5-1.3-4.6-3.7-4.8-6.7 0 0 .9-3.5 6.8-3.5.6 0 2.4-1.8 2.5-2.3 0-.2-3.6-1.6-4.9-2.9-.7-.7-1.1-1.1-1.4-1.3-.2-.1-.3-.3-.5-.4-.5-1.6-.5-3.4-.1-5-2.1 1-3.7 2.5-4.9 3.8h0C9 11 9 7.6 9.1 6.9c0 0-.6.3-.7.4a16.32 16.32 0 0 0-2 1.7c-.7.7-1.3 1.5-1.9 2.3h0c-1.3 1.9-2.2 4-2.7 6.2 0 0-.2.9-.3 1.9 0 .2 0 .3-.1.5 0 .3-.1.6-.1 1.2v.9c-.4 11 8.7 20.2 20 20.2 10.1 0 18.5-7.3 20.1-17 0-.3.1-.5.1-.8.4-3.5 0-7.2-1.3-10.3h0z"/></svg>