<svg xmlns="http://www.w3.org/2000/svg" baseProfile="tiny" viewBox="0 0 42.5 42.5" fill="#fff"><path d="M29.4 0h.3c.2 2.5-.6 5-2.3 6.8-1.4 2-3.8 3.1-6.3 2.9-.2-2.4.7-4.9 2.3-6.7 1.7-1.6 3.8-2.7 6-3zm9.2 31.2h0c-.8 2.5-2 4.8-3.5 6.9-1.3 1.9-3 4.4-6 4.4-2.6 0-4.3-1.6-6.8-1.7-2.8 0-4.3 1.4-6.8 1.7h-.9c-1.9-.3-3.4-1.7-4.4-3.1-3.8-4.3-5.9-9.7-6.3-15.4v-1.9c.2-4.6 2.4-8.4 5.4-10.2 1.8-1.2 4-1.7 6.2-1.4 1 .2 2.1.5 3 .9.9.5 2 .8 3 .9.7-.1 1.5-.3 2.1-.7 2.1-.8 4.1-1.6 6.8-1.2 2.8.3 5.4 1.8 6.9 4.1-3.2 1.8-5 5.3-4.5 8.9.4 3.4 2.6 6.5 5.8 7.8h0z"/></svg>