<svg xmlns="http://www.w3.org/2000/svg" baseProfile="tiny" viewBox="0 0 42.5 42.5" fill="#fff"><path d="M39.9 4H2.5C1.1 4 0 5.1 0 6.4v24c0 1.3 1.1 2.4 2.5 2.4h16V36h-6.9c-.4 0-.8.4-.8.8s.3.8.8.8h19.3c.4 0 .8-.4.8-.8s-.3-.8-.8-.8H24v-3.2h16c1.3 0 2.5-1.1 2.5-2.4v-24C42.4 5.1 41.3 4 39.9 4zm1.3 26.4c0 .7-.6 1.3-1.3 1.3H2.5c-.7 0-1.3-.6-1.3-1.3v-24c0-.7.6-1.3 1.3-1.3H40c.7 0 1.3.6 1.3 1.3l-.1 24zM14.3 15.8c-.3 0-.7.1-.8.3-.3.3-.3.5-.3.8v5c0 .7.5 1.2 1.2 1.2.3 0 .6-.1.8-.3.3-.3.3-.5.3-.8v-5c0-.7-.5-1.2-1.2-1.2zm1.7 7.9c0 .7.6 1.3 1.3 1.3h.8v2.6c0 .3.1.6.3.8.3.3.5.3.8.3.7 0 1.2-.5 1.2-1.2V25H22v2.6c0 .7.5 1.2 1.2 1.2s1.2-.5 1.2-1.2V25h.8c.3 0 .7-.2.9-.3.3-.3.4-.6.3-.9V16H15.7v7.7h.3zm8-12.4l.8-1.5c.1-.1 0-.2 0-.3-.1-.1-.2 0-.3.1l-.8 1.5a5.52 5.52 0 0 0-4.7 0l-.8-1.5c0-.1-.2-.1-.3-.1s-.1.2-.1.2l.8 1.5c-.8.4-1.5 1-2 1.8s-.8 1.6-.8 2.5h10.9c0-.9-.3-1.8-.8-2.5-.4-.7-1.1-1.3-1.9-1.7zm-4.8 2.2c-.1.1-.2.2-.3.2s-.3-.1-.3-.2c-.2-.2-.2-.4 0-.7.2 0 .3-.1.3-.1.3 0 .4.2.4.4.1.2 0 .3-.1.4zm5 0c-.1.1-.2.2-.3.2-.3 0-.4-.2-.4-.4 0-.3.2-.5.4-.5.1 0 .3.1.3.2.1.1.1.3 0 .5zm5.1 2.6c-.3-.3-.5-.3-.8-.3s-.7.1-.8.3c-.3.3-.4.5-.4.8v5c0 .3.1.6.3.8.3.3.5.3.8.3.7 0 1.2-.5 1.2-1.2v-5c0-.2-.1-.4-.3-.7z"/></svg>