<svg xmlns="http://www.w3.org/2000/svg" baseProfile="tiny" viewBox="0 0 42.5 42.5" fill="#fff"><path d="M5.9 13.8c-.7 0-1.4.3-1.9.8s-.8 1.1-.8 1.8v11A2.65 2.65 0 0 0 5.8 30c.7 0 1.4-.3 1.8-.8.5-.5.8-1.2.8-1.9v-11c.1-1.3-1.1-2.5-2.5-2.5zm3.6 17.5c0 1.5 1.2 2.8 2.7 2.8h2v5.8c0 .7.3 1.4.8 1.9s1.1.8 1.8.8c1.4 0 2.6-1.1 2.6-2.6v-5.8H23V40c0 1.5 1.2 2.6 2.6 2.6a2.65 2.65 0 0 0 2.6-2.6v-5.8h1.9c.8 0 1.5-.3 2-.8s.8-1.2.8-2v-17H9.5v16.9zM27 3.9L28.8.6c.1-.1.1-.4-.1-.5h-.1c0-.1-.2-.1-.3.1l-1.9 3.4c-3.3-1.4-7-1.4-10.3 0L14.2.2c0-.2-.2-.3-.4-.2s-.2.3-.2.4v.1l1.8 3.3c-1.8.9-3.3 2.2-4.4 3.9-1.1 1.6-1.6 3.5-1.6 5.5H33c0-2-.6-3.9-1.6-5.5-1.1-1.6-2.6-2.9-4.4-3.8h0zM16.6 8.8c-.2.2-.4.3-.7.3s-.5-.1-.7-.3c-.4-.4-.4-1 0-1.4.2-.2.4-.3.7-.3a.94.94 0 0 1 1 1c0 .3-.1.5-.3.7h0zm10.7 0c-.2.2-.4.3-.7.3a.94.94 0 0 1-1-1 .94.94 0 0 1 1-1c.3 0 .5.1.7.3.4.4.4 1 0 1.4zm11.2 5.7a2.66 2.66 0 0 0-3.7 0c-.6.5-.8 1.2-.8 1.9v11a2.65 2.65 0 0 0 2.6 2.6c1.4 0 2.6-1.1 2.7-2.6v-11c0-.7-.3-1.4-.8-1.9h0z"/></svg>