<svg xmlns="http://www.w3.org/2000/svg" baseProfile="tiny" viewBox="0 0 42.5 42.5"><path fill="#fff" d="M38.1 34.4c-1.2-.5-1.8-1.2-1.7-2.2 0-.9-.3-1.7-.9-2.4a10.27 10.27 0 0 0 0-5.5c-.8-2.4-3.3-6-5.8-9.5-1-1.4-1.1-3-1.1-4.9 0-2-.3-4-1.1-5.9-1-2.3-3.3-3.9-5.8-3.8-1.6 0-3.1.5-4.4 1.4-2.6 1.8-2.2 5.6-2 8.1 0 .3.1.7.1.9.2 1.4.1 2.8-.2 4.2-.4.6-.8 1.2-1.3 1.8-.6.8-1.3 1.7-1.8 2.6-.8 1.3-1.4 2.7-1.8 4.1-.3 1-.7 1.9-1.1 2.8-.7.9-.8 2-.6 2.9-.4.3-.7.8-.9 1.2-.4.8-1.2 1.2-2.8 1.5-.6.1-1.2.4-1.5.9a2.56 2.56 0 0 0 0 2.1c.2.8.2 1.6-.2 2.3l-.2.9c-.1.4-.1.8.1 1.2.6.9 2.4 1.3 4.2 1.5 1.2.2 2.3.5 3.4 1s2.2.8 3.3 1h.5c1.1 0 2-.5 2.5-1.5 1.5-.3 3-.5 4.6-.5 1.5 0 3.1.1 4.5.5.3.6.8 1.1 1.4 1.5.5.2 1 .3 1.5.3 1 0 2-.4 2.7-1.1 1.5-1.2 3.2-2.3 4.9-3.1.4-.2.7-.4 1-.6.8-.4 1.4-1.2 1.4-2.1.1-.8-.3-1.3-.9-1.6zm-21-.2c-.1-.8-1.2-1.7-2.4-2.6-1-.6-1.8-1.4-2.5-2.4-.5-1.9-.3-4 .8-5.7a13.9 13.9 0 0 0 1.2-2.8 13.9 13.9 0 0 1 1.2-2.8c.8-1 1.3-2.2 1.4-3.5.7.8 1.6 1.2 2.6 1.4h.4c.9-.3 1.7-.8 2.5-1.3.7-.4 1.4-.8 2.1-1.1.6 1.1 4.2 9 4.6 11.6.2 1.5.1 2.9-.2 4.4h-.4c-1 0-1.3.5-1.3.9-.2 1.4-.2 2.8-.2 4.2-1.2 1.5-2.9 2.6-4.8 3-1 .2-2 .2-3 .2-.5 0-1 0-1.5-.1L16.2 36c.7-.3 1.1-1.1.9-1.8h0zm1.7-25h0c-.1 0-.1-.1-.1-.2 0-.7-.6-1.3-1.3-1.4h-.1c-.4.1-.7.4-.8.7.1-.9.6-1.5 1.2-1.5s1.2.9 1.2 2c0 .1 0 .3-.1.4h0zm5.2.6c.1-.2.1-.4.1-.6.2-.8-.2-1.6-1-1.8s-1.6.2-1.8 1v1h-.1c-.1-.3-.1-.6-.1-.8-.1-1 .6-2 1.7-2.1 1 .1 1.8 1.1 1.7 2.1-.1.4-.2.9-.5 1.2h0zm-.6 2.3c0 .1 0 .1-.4.3-.1.1-.4.2-.6.3l-.2.1c-.8.5-1.7 1-2.6 1.4-.3 0-.5-.1-.9-.3l-.3-.2c-.5-.3-.9-.7-1.2-1.2.2-.2.8-.6 1.1-.9.4-.4.9-.8 1.5-.9h.1c.6.2 1.2.4 1.8.7l.7.3a1.53 1.53 0 0 1 1 .4h0zm5 26a17.4 17.4 0 0 0 .6-4.5v-.8c-.1-.5-.1-1 0-1.5-.1 1 .4 1.9 1.2 2.4.3.1.7.2 1 .2 1 0 1.9-.4 2.7-1 .3-.3.5-.6.7-.9 0 .1.1.3 0 .4-.1 1.1.5 2.1 1.4 2.7l.1.1c.3.2 1.2.6 1.2.8 0 0 0 .1-.1.1-.5.4-1.1.7-1.7.9-1.2.5-2.3 1.2-3.4 2.1-.6.8-1.6 1.4-2.6 1.6h-.2c-.6-.2-1.2-1.2-.9-2.6h0zm-23-3.6c-.1-.3-.1-.5-.1-.8 0-.2.9-.4 1.3-.5.5-.1 1-.2 1.5-.5s.8-.8 1-1.3c.1-.3.3-.6.6-.8h.1c.4 0 1.2.8 1.7 1.6.1.2.3.6.6 1 .7 1.3 1.5 2.5 2.4 3.7.5.5 1.3 1.6 1.1 2.5-.2.6-.6 1-1.1 1.4h-.3c-1.5-.2-2.9-.7-4.2-1.3l-.2-.1c-.9-.3-1.7-.5-2.7-.6-.7-.1-1.4-.2-2.1-.5-.1-.2 0-.7.2-1.2.1-.3.2-.7.3-1 .1-.6 0-1.1-.1-1.6h0z"/></svg>