<svg xmlns="http://www.w3.org/2000/svg" baseProfile="tiny" viewBox="0 0 42.5 42.5"><path fill="#fff" d="M40 4.5H2.5C1.1 4.5 0 5.6 0 7h0v24.4C0 32.8 1.1 34 2.5 34h15.9v3.2h-6.9c-.4 0-.8.4-.8.8s.4.8.8.8H31c.4 0 .8-.4.8-.8s-.4-.8-.8-.8h-6.9V34H40c1.3 0 2.5-1.1 2.5-2.5h0V7c0-1.4-1-2.5-2.5-2.5zm1.3 26.8c0 .7-.5 1.2-1.2 1.2H2.5c-.7 0-1.2-.5-1.2-1.2V7c0-.7.5-1.2 1.2-1.2H40c.7 0 1.2.5 1.2 1.2l.1 24.3zM10.5 18.7c-.3-.1-.7-.3-.9-.4-.3-.1-.5-.1-.8-.1-.1 0-.3 0-.4.1-.1 0-.1.1-.1.3s0 .3.1.3c.1.1.2.1.4.2a.55.55 0 0 1 .5.3c.3.1.7.3.9.4.3.1.5.3.7.5s.3.5.3.9-.1.7-.3.9c-.3.3-.5.5-.8.7-.4.1-.8.3-1.2.3-.5 0-.9-.1-1.3-.3s-.8-.4-1.2-.7l.5-1.1c.3.3.7.5 1.1.7.3.1.7.3 1.1.3.1 0 .4 0 .5-.1s.1-.3.1-.4 0-.3-.1-.3c-.2-.2-.3-.2-.4-.3-.1 0-.4-.1-.7-.1-.3-.1-.7-.1-.9-.3-.3-.1-.5-.3-.7-.5-.1-.3-.3-.5-.3-.9 0-.3.1-.7.3-.9.3-.3.5-.5.8-.7.4-.1.8-.3 1.2-.3s.8 0 1.2.1l1.1.4-.7 1zm1.3-1.7h1.6l1.6 3.3 1.6-3.3h1.6v5.7h-1.3v-3.6l-1.5 3.1h-.9L13 19.1v3.6h-1.3l.1-5.7zm11.7 5.7l-.4-1.1h-2.4l-.4 1.1h-1.5l2.4-5.7h1.5l2.4 5.7h-1.6zm-2.4-2.1h1.6l-.8-2-.8 2zm7.9 2.1l-.8-1.6h-1.1v1.6h-1.5V17h2.5c.7 0 1.2.1 1.7.5.4.4.7.9.7 1.5 0 .4-.1.8-.3 1.1-.1.3-.4.5-.8.7l1.2 1.9H29zm-1.9-2.8h1.1c.3 0 .5 0 .7-.3.1-.1.3-.4.3-.7s-.1-.5-.3-.7c-.1-.1-.4-.3-.7-.3h-1.1v2zM31 17h4.8v1.2H34v4.4h-1.5v-4.4h-1.7L31 17z"/></svg>