<svg xmlns="http://www.w3.org/2000/svg" baseProfile="tiny" viewBox="0 0 42.5 42.5"><path fill="#fff" d="M42.4 28c-.1-1-2.1-12.5-2.2-12.6-.5-4.3-3.1-7-7-7-1.9 0-3.7.7-5 2.1H14.3c-1.3-1.4-3.1-2.1-5-2.1-3.8 0-6.3 2.8-7 7C2.3 15.5.2 27.1.1 28c-.4 2.2.8 4.3 2.9 5 1.7.6 3.6.1 4.8-1.2 1.5-1.8 3-3.7 4.3-5.6 2 1.4 4.8.9 6.2-1.2.5-.7.7-1.6.7-2.4h4.8c0 2.4 2 4.4 4.4 4.4.9 0 1.8-.3 2.4-.7 1.3 2 2.8 3.8 4.3 5.6 1.3 1.3 3.1 1.8 4.8 1.2 1.9-.8 3.2-2.9 2.7-5.1zM10.6 17.9c0 .7-.5 1.3-1.3 1.3h-.2c-.6 0-1.2-.5-1.2-1.3v-1.3H6.6c-.6 0-1.2-.5-1.2-1.2v-.2c0-.7.5-1.3 1.3-1.3H8v-1.3c0-.7.5-1.3 1.3-1.3h.2c.7 0 1.3.5 1.3 1.3V14H12c.7 0 1.3.5 1.3 1.3v.2c0 .7-.5 1.3-1.3 1.3h-1.4v1.1zm3.8 7.4c-1.6 0-2.9-1.3-2.9-2.8 0-1.6 1.3-2.9 2.8-2.9 1.6 0 2.9 1.3 2.9 2.8.1 1.7-1.2 2.9-2.8 2.9zm18.8-13.8c.7 0 1.4.6 1.4 1.4s-.6 1.4-1.4 1.4-1.4-.6-1.4-1.4.7-1.4 1.4-1.4zM28 25.3c-1.6 0-2.9-1.3-2.9-2.8 0-1.6 1.3-2.9 2.9-2.9s2.9 1.3 2.9 2.9c-.1 1.6-1.4 2.8-2.9 2.8zm2.7-8.6c-.7 0-1.4-.6-1.4-1.4s.6-1.4 1.4-1.4c.7 0 1.4.6 1.4 1.4s-.7 1.4-1.4 1.4h0zm2.5 2.5c-.7 0-1.4-.6-1.4-1.4 0-.6.6-1.3 1.4-1.3.7 0 1.4.6 1.4 1.4-.1.8-.6 1.3-1.4 1.3zm2.6-2.5c-.7 0-1.4-.6-1.4-1.4s.6-1.4 1.4-1.4c.7 0 1.4.6 1.4 1.4-.1.8-.7 1.4-1.4 1.4h0z"/></svg>