<svg xmlns="http://www.w3.org/2000/svg" baseProfile="tiny" viewBox="0 0 42.5 42.5" fill="#fff"><path d="M11.5 30.2c-.9-.5-1.2-1.5-.7-2.4s1.5-1.2 2.4-.7c2 1.1 4.3 1.8 6.6 2 .1-1.9.4-3.7.8-5.6H16v-1.8c0-5.3 3.6-14.6 5.2-18.3H3.5C1.6 3.4 0 5 0 7v28.5c0 2 1.6 3.5 3.5 3.5h17.6a27.33 27.33 0 0 1-1.4-6.3c-2.8-.2-5.7-1.1-8.2-2.5zM10.8 13c-.1-.8.6-1.6 1.4-1.6.8-.1 1.6.6 1.6 1.4v2.4c.1.8-.6 1.6-1.4 1.6s-1.6-.6-1.6-1.4V13zM39 3.4H25c-.6 1.4-4.6 10.7-5.4 16.6h5.8l-.9 2.4c-.7 2.2-1.1 4.4-1.2 6.7 2.2-.3 4.4-1 6.4-2.1.8-.5 1.9-.2 2.4.6s.2 1.9-.6 2.4h0-.1c-2.5 1.4-5.2 2.3-8.1 2.5.2 1.9.6 3.8 1.3 5.6.1.2.1.5.1.8H39c2 0 3.5-1.6 3.5-3.5V7c0-2-1.6-3.6-3.5-3.6zm-6.9 11.8c.1.8-.6 1.6-1.4 1.6-.8.1-1.6-.6-1.6-1.4V13c.1-.8.8-1.5 1.6-1.4s1.4.7 1.4 1.4v2.2z"/></svg>