<svg xmlns="http://www.w3.org/2000/svg" baseProfile="tiny" viewBox="0 0 42.5 42.5" fill="#fff"><path d="M4.2 13.3h-.5c-.3 0-.6.1-.9.3-.2.1-.4.3-.6.4-.5.5-.8 1.1-.8 1.7v2.4H0v1.3c0 .2.1.2.3.2h1.1v7.8c0 .1 0 .4.1.5H3c.2 0 .2 0 .2-.2v-8H5c.3 0 .2 0 .4-.4l.4-1.1H3.2v-1.8c0-.3.1-.7.3-.9.3-.3.7-.5 1.2-.4H5l.4-.1h.2c.1 0 .1-.2.1-.3l.2-.8c0-.1.1-.2 0-.3s-.2-.1-.2-.1c-.2-.1-.5-.1-.8-.2h-.7zm4 .5H8c-.3 0-.6.2-.8.5-.1.2-.2.5-.2.7 0 .6.4 1.1 1 1.1h.3c.2 0 .4-.1.6-.2s.3-.3.4-.5c.2-.5.1-1-.2-1.4-.3-.1-.6-.2-.9-.2zm7.1 4a3.46 3.46 0 0 0-2 .7l-.7.6c0-.3-.1-.6-.1-.8 0-.1 0-.2-.1-.3-.1 0-.1-.1-.2 0h-1.3c-.1 0-.1.2-.1.2v9.5h1.8v-7c.1-.2.3-.3.5-.4.4-.4.8-.6 1.3-.8h.4c.2 0 .4.1.6.1.1 0 .2.1.3 0s.1-.2.2-.4l.4-.8c0-.1.1-.3.1-.4s-.3 0-.3 0c-.3-.1-.5-.2-.8-.2h0zm4.5 0l-.5.1c-.7.1-1.3.5-1.8.9-1 1.1-1.5 2.5-1.5 3.9 0 1.7.5 3.5 2 4.5.3.2.7.4 1.1.5.2.1.4.1.7.2H21c.8 0 1.6-.2 2.3-.6l.4-.2.1-.1c0-.1-.1-.2-.1-.3l-.3-.7c0-.1-.1-.2-.1-.2-.1 0-.3.1-.3.1l-.9.3c-.9.3-1.8.2-2.7-.2-.7-.4-1.3-1.1-1.5-1.9-.1-.2-.1-.4-.1-.6v-.2h6c.2 0 .2 0 .2-.2v-.9c0-.3-.1-.7-.1-1a4.59 4.59 0 0 0-1.7-2.8c-.6-.4-1.3-.6-1.9-.6h-.5zm-10.9.3H7.4s-.1 0-.1.1v9.7h1.8v-9.7c0-.1-.2-.1-.2-.1h0zm10.9 1.2h.5c.7 0 1.4.5 1.7 1.2.2.3.2.7.3 1 0 .1.1.4 0 .4h-4.2c-.2 0-.1-.1-.1-.3 0-.3.1-.6.2-.9.1-.7.8-1.2 1.6-1.4h0zm6.2-1.2h-.3v1.4h2.8v8.2h1.8v-8.2h2.6l.4-1.4c.1.1.2.5.3.6l.6 1.5 2.3 5.7.5 1.3c0 .1.1.4.2.4h1.4c.1-.2.2-.3.2-.5l.7-1.8 2-4.9.6-1.6c.1-.3.2-.6.4-.9h-1.9l-.4 1.2-1 2.7-.8 2.2-.4.9-.1.3c-.6-1.9-1.4-3.7-2.1-5.5l-.5-1.2a.76.76 0 0 0-.2-.4H26z"/></svg>